<svg xmlns="http://www.w3.org/2000/svg" xmlns:xlink="http://www.w3.org/1999/xlink" width="62" height="50.22" viewBox="0 0 62 50.22">
  <defs>
    <style>
      .cls-1 {
        fill: #ffd52e;
        fill-rule: evenodd;
        filter: url(#filter);
      }
    </style>
    <filter id="filter" x="1300" y="1885" width="62" height="50.22" filterUnits="userSpaceOnUse">
      <feFlood result="flood" flood-color="#fff"/>
      <feComposite result="composite" operator="in" in2="SourceGraphic"/>
      <feBlend result="blend" in2="SourceGraphic"/>
    </filter>
  </defs>
  <path id="_6" data-name="6" class="cls-1" d="M1362,1918.25v5.5a8.211,8.211,0,0,1-8.18,8.25h-13.64a8.211,8.211,0,0,1-8.18-8.25v-5.5a8.211,8.211,0,0,1,5.52-7.76,14.789,14.789,0,0,1-2.79-8.74c0-7.59,5.49-13.75,12.27-13.75s12.27,6.16,12.27,13.75a14.789,14.789,0,0,1-2.79,8.74A8.211,8.211,0,0,1,1362,1918.25Zm-5.45-16.5c0-6.08-4.28-11-9.55-11s-9.55,4.92-9.55,11,4.28,11,9.55,11S1356.55,1907.83,1356.55,1901.75Zm-2.43,11.18a11.148,11.148,0,0,1-14.24,0,6.313,6.313,0,0,0-5.15,6.01v4.13a6.449,6.449,0,0,0,6.69,6.18h11.16a6.449,6.449,0,0,0,6.69-6.18v-4.13A6.313,6.313,0,0,0,1354.12,1912.93Zm-32.3,19.07h-13.64a8.211,8.211,0,0,1-8.18-8.25v-5.5a8.211,8.211,0,0,1,5.52-7.76,14.789,14.789,0,0,1-2.79-8.74c0-7.59,5.49-13.75,12.27-13.75s12.27,6.16,12.27,13.75a14.789,14.789,0,0,1-2.79,8.74,8.211,8.211,0,0,1,5.52,7.76v5.5A8.211,8.211,0,0,1,1321.82,1932Zm2.73-30.25c0-6.08-4.28-11-9.55-11s-9.55,4.92-9.55,11,4.28,11,9.55,11S1324.55,1907.83,1324.55,1901.75Zm2.72,17.19a6.313,6.313,0,0,0-5.15-6.01,11.148,11.148,0,0,1-14.24,0,6.313,6.313,0,0,0-5.15,6.01v4.13a6.449,6.449,0,0,0,6.69,6.18h11.16a6.449,6.449,0,0,0,6.69-6.18v-4.13ZM1335,1887s8.86-.89,10,13c0.59,7.22-3,11-3,11s5.88,0.03,6,11c0.07,6.82.94,11.04-11,12-24.78,2-21.02-7.12-19-16a10.135,10.135,0,0,1,5-7C1322.11,1905.75,1315.16,1887.49,1335,1887Zm4.73,48.22h-15.46a9.339,9.339,0,0,1-9.27-9.41v-6.28a9.386,9.386,0,0,1,6.26-8.87,16.878,16.878,0,0,1-3.17-9.97c0-8.66,6.23-15.69,13.91-15.69s13.91,7.03,13.91,15.69a16.878,16.878,0,0,1-3.17,9.97,9.386,9.386,0,0,1,6.26,8.87v6.28A9.339,9.339,0,0,1,1339.73,1935.22Zm3.09-34.53c0-6.93-4.85-12.55-10.82-12.55s-10.82,5.62-10.82,12.55,4.85,12.56,10.82,12.56S1342.82,1907.63,1342.82,1900.69Zm3.09,19.62a7.177,7.177,0,0,0-5.84-6.85,12.578,12.578,0,0,1-16.14,0,7.177,7.177,0,0,0-5.84,6.85v4.71a7.34,7.34,0,0,0,7.59,7.06h12.64a7.34,7.34,0,0,0,7.59-7.06v-4.71Z" transform="translate(-1300 -1885)"/>
</svg>
