<svg xmlns="http://www.w3.org/2000/svg" xmlns:xlink="http://www.w3.org/1999/xlink" width="45" height="47" viewBox="0 0 45 47">
  <defs>
    <style>
      .cls-1 {
        fill: #ffd52e;
        fill-rule: evenodd;
        filter: url(#filter);
      }
    </style>
    <filter id="filter" x="859" y="1888" width="45" height="47" filterUnits="userSpaceOnUse">
      <feFlood result="flood" flood-color="#fff"/>
      <feComposite result="composite" operator="in" in2="SourceGraphic"/>
      <feBlend result="blend" in2="SourceGraphic"/>
    </filter>
  </defs>
  <path id="_8_копия_2" data-name="8 копия 2" class="cls-1" d="M904,1901l-4.688,18.33c-0.5,2.64-2.86,5.67-6.312,5.67H876c-3.452,0-6.375-2.21-6.375-5.67l-6.25-28.2h-2.813a1.565,1.565,0,0,1,0-3.13h5.116L869,1901h35Zm-34,3,2.75,15.33A2.938,2.938,0,0,0,876,1922h17a3.229,3.229,0,0,0,3.188-2.67L900,1904H870Zm5.875,24.73a3.135,3.135,0,1,1-3.125,3.14A3.135,3.135,0,0,1,875.875,1928.73Zm15.625,0a3.135,3.135,0,1,1-3.125,3.14A3.135,3.135,0,0,1,891.5,1928.73Z" transform="translate(-859 -1888)"/>
</svg>
