<svg xmlns="http://www.w3.org/2000/svg" xmlns:xlink="http://www.w3.org/1999/xlink" width="47" height="47" viewBox="0 0 47 47">
  <defs>
    <style>
      .cls-1 {
        fill: #ffd52e;
        fill-rule: evenodd;
        filter: url(#filter);
      }
    </style>
    <filter id="filter" x="1084" y="1889" width="47" height="47" filterUnits="userSpaceOnUse">
      <feFlood result="flood" flood-color="#fff"/>
      <feComposite result="composite" operator="in" in2="SourceGraphic"/>
      <feBlend result="blend" in2="SourceGraphic"/>
    </filter>
  </defs>
  <path id="Прямоугольник_7" data-name="Прямоугольник 7" class="cls-1" d="M1129,1902l-4.69,18.33c-0.5,2.64-2.86,5.67-6.31,5.67h-17c-4.13,0-5.79-2.88-6.38-5.67l-6.24-28.2h-2.82a1.565,1.565,0,0,1,0-3.13h5.12l3.32,13h35Zm-34,3,2.75,15.33A2.934,2.934,0,0,0,1101,1923h17a3.234,3.234,0,0,0,3.19-2.67L1125,1905h-30Zm5.87,24.73a3.135,3.135,0,1,1-3.12,3.14A3.137,3.137,0,0,1,1100.87,1929.73Zm15.63,0a3.135,3.135,0,1,1-3.13,3.14A3.128,3.128,0,0,1,1116.5,1929.73ZM1113,1896h17v19h-17v-19Zm10,1h3v13h-3v-13Zm-5,5h13v3h-13v-3Z" transform="translate(-1084 -1889)"/>
</svg>
